<svg xmlns="http://www.w3.org/2000/svg" xmlns:xlink="http://www.w3.org/1999/xlink" xml:space="preserve" fill-rule="evenodd" stroke-linejoin="round" stroke-miterlimit="2" clip-rule="evenodd" viewBox="0 0 16 16"><defs><path id="a" fill="#f079f2" d="M5.035 5.014H10.975999999999999V6.99H5.035z"/></defs><path fill="#f079f2" fill-rule="nonzero" d="M5,5L5,7L11,7L11,5L5,5ZM3,1C2,1 1,2 1,3L1,13.034C1,14.139 1.895,15.034 3,15.034L13,15.034C14.105,15.034 15,14.105 15,13L15,3C15,2 14,1 13,1L3,1ZM3,2L4,2L4,3L3,3L3,2ZM6,2L7,2L7,3L6,3L6,2ZM9,2L10,2L10,3L9,3L9,2ZM12,2L13,2L13,3L12,3L12,2ZM3,4L13,4L13,13L3,13L3,4Z"/><use xlink:href="#a" transform="rotate(45 -.157 10.806)scale(.59399 1)"/><use xlink:href="#a" transform="rotate(-45 13.059 6.9)scale(.94631 1)"/></svg>