<?xml version="1.0" encoding="UTF-8" standalone="no"?>
<svg
   width="16"
   height="16"
   viewBox="0 0 16 16"
   version="1.1"
   xml:space="preserve"
   style="clip-rule:evenodd;fill-rule:evenodd;stroke-linejoin:round;stroke-miterlimit:2"
   id="svg1"
   sodipodi:docname="DiscordEmbeddedAppClient.svg"
   xmlns:inkscape="http://www.inkscape.org/namespaces/inkscape"
   xmlns:sodipodi="http://sodipodi.sourceforge.net/DTD/sodipodi-0.dtd"
   xmlns="http://www.w3.org/2000/svg"
   xmlns:svg="http://www.w3.org/2000/svg"><defs
   id="defs1" /><sodipodi:namedview
   id="namedview1"
   pagecolor="#ffffff"
   bordercolor="#000000"
   borderopacity="0.25"
   inkscape:showpageshadow="2"
   inkscape:pageopacity="0.0"
   inkscape:pagecheckerboard="false"
   inkscape:deskcolor="#d1d1d1"
   inkscape:document-units="px"
   showborder="true" />&#10;    <path
   d="M 12.892166,4.0657641 C 11.966169,3.6418431 10.988512,3.3410853 9.9843603,3.17114 9.8468963,3.4168013 9.7226245,3.6695576 9.6118774,3.9283001 8.5422085,3.7671126 7.4544698,3.7671126 6.384801,3.9283001 6.2740539,3.6695576 6.1496712,3.4168013 6.0123181,3.17114 5.0075012,3.3425265 4.0292902,3.6439494 3.1022956,4.0679812 1.2620528,6.7906537 0.76319182,9.4457028 1.0126223,12.06306 2.0902729,12.859242 3.2966297,13.46486 4.5789242,13.853417 4.8677093,13.465081 5.123237,13.053022 5.3427358,12.621784 4.925688,12.466029 4.5232735,12.273912 4.1399265,12.04754 c 0.1008808,-0.07317 0.1995444,-0.14855 0.2948823,-0.221716 2.2568471,1.061355 4.8735394,1.061355 7.1303862,0 0.09645,0.07871 0.19511,0.154093 0.294883,0.221716 -0.384012,0.226705 -0.787314,0.419265 -1.205027,0.575353 0.219277,0.431127 0.474805,0.842743 0.763812,1.230524 1.283403,-0.387005 2.490646,-0.99229 3.568519,-1.789248 0.292665,-3.0352923 -0.49997,-5.6659526 -2.095216,-7.9984049 z M 5.6586811,10.453402 c -0.6950797,0 -1.2693241,-0.630782 -1.2693241,-1.406788 0,-0.776006 0.55429,-1.4123309 1.2671069,-1.4123309 0.712817,0 1.2826271,0.6363249 1.2704327,1.4123309 -0.012194,0.776006 -0.5598329,1.406788 -1.2682155,1.406788 z m 4.6826419,0 c -0.6961882,0 -1.2682155,-0.630782 -1.2682155,-1.406788 0,-0.776006 0.55429,-1.4123309 1.2682155,-1.4123309 0.713926,0 1.279301,0.6363249 1.267107,1.4123309 -0.01219,0.776006 -0.558724,1.406788 -1.267107,1.406788 z"
   style="clip-rule:evenodd;fill:#f079f2;fill-rule:nonzero;stroke:#f079f2;stroke-width:0.0997722px;stroke-linejoin:round;stroke-miterlimit:2"
   id="path1" />&#10;</svg>
