<svg xmlns="http://www.w3.org/2000/svg" xml:space="preserve" fill-rule="evenodd" stroke-linejoin="round" stroke-miterlimit="2" clip-rule="evenodd" viewBox="0 0 16 16"><path fill="#f079f2" d="M6.779,7.613C6.779,7.554 6.743,7.501 6.689,7.478C5.465,6.965 4.604,5.755 4.604,4.345C4.604,2.471 6.126,0.949 8,0.949C9.874,0.949 11.396,2.471 11.396,4.345C11.396,5.761 10.528,6.975 9.296,7.485C9.241,7.507 9.205,7.561 9.205,7.62C9.205,7.918 9.205,8.788 9.205,8.788C9.205,8.788 8.756,9.013 8.408,9.187C8.333,9.224 8.285,9.302 8.285,9.386C8.285,9.471 8.333,9.548 8.408,9.586C8.756,9.76 9.205,9.984 9.205,9.984L9.205,10.399C9.205,10.399 8.753,10.624 8.403,10.797C8.327,10.835 8.279,10.912 8.279,10.997C8.279,11.082 8.327,11.16 8.403,11.197C8.753,11.371 9.205,11.595 9.205,11.595L9.205,11.984C9.205,11.984 8.753,12.208 8.403,12.382C8.327,12.42 8.279,12.497 8.279,12.582C8.279,12.667 8.327,12.744 8.403,12.782C8.753,12.956 9.205,13.18 9.205,13.18L9.205,13.371C9.205,13.371 8.606,13.942 8.25,14.282C8.106,14.42 7.878,14.42 7.734,14.282C7.475,14.035 7.087,13.664 6.895,13.481C6.821,13.411 6.779,13.313 6.779,13.211C6.779,12.352 6.779,8.298 6.779,7.613ZM8,2.323C7.331,2.323 6.787,2.867 6.787,3.536C6.787,4.205 7.331,4.749 8,4.749C8.669,4.749 9.213,4.205 9.213,3.536C9.213,2.867 8.669,2.323 8,2.323Z" transform="rotate(-45 7.898 11.118)scale(1.27249)"/></svg>