<svg xmlns="http://www.w3.org/2000/svg" xml:space="preserve" fill-rule="evenodd" stroke-linejoin="round" stroke-miterlimit="2" clip-rule="evenodd" viewBox="0 0 16 16"><path fill="none" d="M1,3L15,3" transform="matrix(1 0 0 1.20938 0 4.372)"/><path fill="#f079f2" d="M1.218,7.997C1.218,6.545 3.218,6.497 3.218,6.497L13.218,6.497C13.218,6.497 15.218,6.479 15.218,7.997C15.218,9.515 13.218,9.497 13.218,9.497L3.218,9.497C3.218,9.497 1.218,9.448 1.218,7.997ZM3.218,7.497L3.218,8.497L4.218,8.497L4.218,7.497L3.218,7.497ZM6.218,7.497L6.218,8.497L7.218,8.497L7.218,7.497L6.218,7.497ZM13.266,5.617L13.266,6.266L3.17,6.266L3.17,5.617L13.266,5.617ZM13.048,9.723L13.048,10.373L2.952,10.373L2.952,9.723L13.048,9.723ZM15.218,3.926C15.218,5.444 13.218,5.426 13.218,5.426L3.218,5.426C3.218,5.426 1.218,5.377 1.218,3.926C1.218,2.474 3.218,2.426 3.218,2.426L13.218,2.426C13.218,2.426 15.218,2.407 15.218,3.926ZM6.218,4.426L7.218,4.426L7.218,3.426L6.218,3.426L6.218,4.426ZM3.218,4.426L4.218,4.426L4.218,3.426L3.218,3.426L3.218,4.426ZM15.218,12.074C15.218,13.593 13.218,13.574 13.218,13.574L3.218,13.574C3.218,13.574 1.218,13.526 1.218,12.074C1.218,10.623 3.218,10.574 3.218,10.574L13.218,10.574C13.218,10.574 15.218,10.556 15.218,12.074ZM6.218,12.574L7.218,12.574L7.218,11.574L6.218,11.574L6.218,12.574ZM3.218,12.574L4.218,12.574L4.218,11.574L3.218,11.574L3.218,12.574Z" transform="matrix(1 0 0 1.20938 -.218 -1.675)"/></svg>