<?xml version="1.0" encoding="UTF-8" standalone="no"?>
<svg
   width="16"
   height="16"
   viewBox="0 0 16 16"
   version="1.1"
   xml:space="preserve"
   style="clip-rule:evenodd;fill-rule:evenodd;stroke-linejoin:round;stroke-miterlimit:2"
   id="svg1"
   sodipodi:docname="YoutubePlayablesClient.svg"
   inkscape:version="1.3 (0e150ed6c4, 2023-07-21)"
   inkscape:export-filename="YoutubePlayablesClient.svg"
   inkscape:export-xdpi="96"
   inkscape:export-ydpi="96"
   xmlns:inkscape="http://www.inkscape.org/namespaces/inkscape"
   xmlns:sodipodi="http://sodipodi.sourceforge.net/DTD/sodipodi-0.dtd"
   xmlns="http://www.w3.org/2000/svg"
   xmlns:svg="http://www.w3.org/2000/svg"><defs
   id="defs1" /><sodipodi:namedview
   id="namedview1"
   pagecolor="#ffffff"
   bordercolor="#000000"
   borderopacity="0.25"
   inkscape:showpageshadow="2"
   inkscape:pageopacity="0.0"
   inkscape:pagecheckerboard="0"
   inkscape:deskcolor="#d1d1d1"
   inkscape:zoom="22.627417"
   inkscape:cx="8.4852814"
   inkscape:cy="6.4302523"
   inkscape:window-width="1858"
   inkscape:window-height="1057"
   inkscape:window-x="54"
   inkscape:window-y="-8"
   inkscape:window-maximized="1"
   inkscape:current-layer="svg1"
   inkscape:document-units="px" />&#10;    &#10;<path
   style="fill:#f079f2;fill-opacity:1"
   d="M 2.4578208,12.668978 C 1.6789884,12.477132 1.1841906,11.718045 1.1205541,10.948129 0.85893872,8.9522419 0.85427151,6.9150512 1.1405738,4.9217019 1.2214195,4.0794654 1.8972926,3.331924 2.7553011,3.2553995 5.4920816,2.9122849 11.620876,2.9430216 13.523625,3.3171421 c 0.778832,0.1918455 1.27363,0.9509327 1.337266,1.7208485 0.261612,1.9958872 0.26628,4.033078 -0.02002,6.0264274 -0.08068,0.833477 -0.74388,1.578985 -1.592798,1.663528 -2.64353,0.339046 -8.8627249,0.322437 -10.7902522,-0.05897 z M 10.239232,7.9930602 6.5460575,5.8910214 c 0.00506,4.2091616 0,0 0.00474,4.1960506 4.9e-6,0.0044 2.159e-4,0.0087 3.246e-4,0.01311 3.6881149,-2.1071228 0,0 3.6881149,-2.1071228 z"
   id="path1"
   sodipodi:nodetypes="ccccccccccccsccc" /></svg>
