<svg xmlns="http://www.w3.org/2000/svg" xml:space="preserve" width="16" height="16"><g fill="#bfbfbf"><path d="M 4.9584034,0.28989979 H 0.8469733 c -0.276,0 -0.49970767,0.22570766 -0.49970767,0.49970766 V 5.326358 c 0,0.276 0.22570767,0.4997076 0.49970767,0.4997076 H 3.5750642 C 3.5450895,4.4792054 3.9860955,1.8663228 4.9584034,0.28989979 Z M 0.84172243,0.73797391 c 0.001879,-1.6082e-4 0.004164,0 0.006126,0 H 5.0356309 C 4.2982541,2.2564245 3.5990724,4.0624643 3.5614999,5.3771164 H 0.84784844 c -0.0297941,0 -0.0525087,-0.019359 -0.0525087,-0.050758 V 0.78873231 c 0,-0.027932 0.0181914,-0.0483461 0.0463827,-0.0507584 z" overflow="visible" paint-order="stroke fill markers" transform="translate(.784 .703)scale(2.23177)"/><path d="M 5.92,0.142 C 5.638,-0.108 5.297,-0.008 4.96,0.29 L 4.81,0.436 C 4.234,1.046 3.71,2.178 3.534,3.043 a 2.38,2.38 0 0 1 0.148,0.426 l 0.022,0.1 0.022,0.102 c 0,0 -0.005,-0.02 -0.026,-0.08 L 3.686,3.551 A 0.461,0.461 0 0 0 3.677,3.529 C 3.639,3.442 3.537,3.257 3.49,3.177 A 8.789,8.789 0 0 0 3.387,3.498 c 0.132,0.242 0.212,0.656 0.212,0.656 0,0 -0.007,-0.027 -0.04,-0.12 -0.03,-0.083 -0.176,-0.34 -0.21,-0.4 -0.06,0.22 -0.083,0.368 -0.062,0.404 0.04,0.07 0.08,0.2 0.115,0.324 A 7.52,7.52 0 0 1 3.534,5.028 L 3.539,5.09 A 6.11,6.11 0 0 0 3.554,5.84 C 3.58,6.153 3.629,6.422 3.691,6.566 L 3.733,6.543 C 3.643,6.259 3.605,5.888 3.621,5.459 3.646,4.804 3.796,4.014 4.075,3.191 4.548,1.938 5.2,0.94 5.798,0.464 5.253,0.956 4.516,2.548 4.296,3.137 4.049,3.797 3.874,4.417 3.768,5.01 3.95,4.454 4.538,4.214 4.538,4.214 c 0,0 0.29,-0.356 0.626,-0.865 L 4.519,3.521 4.311,3.613 c 0,0 0.53,-0.323 0.987,-0.47 0.627,-0.987 1.31,-2.39 0.622,-3.002" transform="translate(.784 .703)scale(2.23177)"/></g></svg>