<svg xmlns="http://www.w3.org/2000/svg" xml:space="preserve" fill-rule="evenodd" stroke-linejoin="round" stroke-miterlimit="2" clip-rule="evenodd" viewBox="0 0 16 16"><path fill="#e0e0e0" fill-rule="nonzero" d="M931.306,23.783C884.253,-18.174 827.28,-1.323 771.059,48.581C762.711,55.992 754.383,64.217 746.099,73.004C649.912,175.044 560.628,364.044 532.891,508.392C543.699,530.305 552.139,558.267 557.694,579.629C559.12,585.106 560.404,590.251 561.434,594.625C563.875,604.984 565.188,611.696 565.188,611.696C565.188,611.696 564.324,608.435 560.785,598.174C560.111,596.207 559.359,594.059 558.471,591.53C558.008,590.294 557.513,589.07 556.987,587.859C550.714,573.273 533.36,542.49 525.72,529.085C519.665,546.845 513.951,564.72 508.581,582.699C530.631,623.046 544.07,692.188 544.07,692.188C544.07,692.188 542.903,687.707 537.363,672.067C532.442,658.237 507.941,615.304 502.137,605.267C492.208,641.923 488.264,666.667 491.822,672.691C498.73,684.363 505.305,704.509 511.085,726.784C524.134,776.967 533.199,838.065 533.199,838.065C533.199,838.065 533.492,842.116 533.99,848.345C532.174,890.488 533.262,934.183 536.528,973.675C540.848,1025.96 548.986,1070.87 559.359,1094.9L566.403,1091.07C551.173,1043.71 544.983,981.651 547.692,910.078C551.793,800.681 576.967,668.747 623.484,531.238C702.077,323.658 811.112,157.109 910.906,77.568C819.948,159.716 696.844,425.61 659.993,524.072C618.729,634.337 589.488,737.807 571.866,836.942C602.273,744.001 700.583,704.055 700.583,704.055C700.583,704.055 748.799,644.588 805.147,559.629C771.395,567.327 715.97,580.508 697.405,588.308C670.02,599.795 662.644,603.715 662.644,603.715C662.644,603.715 751.342,549.695 827.446,525.238C932.107,360.397 1046.13,126.218 931.306,23.783" transform="translate(-2.075 .495)scale(.0137)"/></svg>