<svg xmlns="http://www.w3.org/2000/svg" xml:space="preserve" width="16" height="16"><g fill="#bfbfbf" font-family="'Nimbus Mono PS'" font-weight="700"><path d="M 9.8222656,7.3769531 8.9609375,7.8730469 9.3320312,9.1699219 9.15625,9.3847656 C 9.047839,9.5162416 8.9497313,9.6574281 8.8613281,9.8105469 8.7729272,9.9636618 8.6983278,10.121625 8.6386719,10.28125 l -0.097656,0.259766 -1.3085937,0.328125 v 0.599609 0.392578 l 1.3105469,0.328125 0.095703,0.259766 c 0.074653,0.200749 0.1697187,0.393601 0.2851562,0.576172 0.070108,0.11088 0.1482258,0.218445 0.2324219,0.320312 l 0.1757812,0.214844 -0.3710937,1.296875 0.8613281,0.496094 0.9375002,-0.96875 0.273437,0.04492 c 0.344889,0.05817 0.695777,0.05743 1.035156,0 l 0.273438,-0.04688 0.939453,0.970704 0.859375,-0.496094 -0.371094,-1.296875 0.177735,-0.214844 c 0.06402,-0.07763 0.124684,-0.15871 0.18164,-0.244141 0.03949,-0.05924 0.07709,-0.120906 0.113282,-0.183593 0.08838,-0.153079 0.162986,-0.309081 0.222656,-0.46875 l 0.09766,-0.259766 1.308594,-0.328125 V 10.869135 L 14.560551,10.54101 14.462891,10.279291 C 14.342954,9.9566863 14.170108,9.6544016 13.947266,9.3847656 l -0.177735,-0.2148437 0.371094,-1.296875 -0.859375,-0.4960938 -0.9375,0.96875 -0.275391,-0.044922 c -0.207608,-0.035014 -0.41747,-0.048202 -0.625,-0.041016 h -0.002 c -0.136628,0.00482 -0.271752,0.018259 -0.40625,0.041016 l -0.273437,0.046875 z m 1.6933594,2.2519531 c 0.14008,-0.00316 0.280869,0.00988 0.419922,0.041016 0.167104,0.037421 0.331233,0.099909 0.486328,0.1894531 0.826425,0.4771367 1.113854,1.5485767 0.636719,2.3749997 -0.04472,0.07745 -0.09394,0.150953 -0.148438,0.21875 -0.526992,0.655618 -1.479542,0.850389 -2.228515,0.417969 -0.140532,-0.08114 -0.264796,-0.179637 -0.373047,-0.291016 -0.292211,-0.301619 -0.4642482,-0.700693 -0.4902346,-1.111328 -0.020856,-0.329571 0.05046,-0.667639 0.2265626,-0.972656 0.238569,-0.413213 0.625644,-0.6931086 1.05664,-0.8085937 0.134613,-0.036069 0.273983,-0.055432 0.414063,-0.058594 z m -0.01172,1.0507818 c -0.218456,0.0144 -0.424886,0.135842 -0.544922,0.34375 -0.192054,0.332646 -0.08265,0.741537 0.25,0.933593 0.33265,0.192056 0.743491,0.08265 0.935547,-0.25 0.192059,-0.332655 0.08265,-0.74154 -0.25,-0.933593 -0.124743,-0.07202 -0.259551,-0.102392 -0.390625,-0.09375 z" style="-inkscape-font-specification:&quot;Nimbus Mono PS Bold&quot;;white-space:pre"/><path d="m 4,0.47070313 c -0.5815984,0 -0.7552963,0.0257571 -0.9707031,0.18554687 -0.3446509,0.26631623 -0.5585938,0.7191374 -0.5585938,1.171875 0,0.4527376 0.1710304,0.8528244 0.4941407,1.1191406 C 3.1802506,3.1603186 3.4184016,3.2128906 4,3.2128906 H 5.2265625 L 1.953125,12.720703 c -0.94779,0 -1.46484375,0.479291 -1.46484375,1.384766 0,0.932105 0.49540041,1.384765 1.50781245,1.384765 h 2.8652344 c 0.4523544,0 0.7749402,-0.05239 0.9472656,-0.185546 0.344651,-0.266319 0.5605469,-0.719849 0.5605469,-1.199219 0,-0.426106 -0.1730398,-0.852825 -0.4746094,-1.119141 C 5.6575837,12.773275 5.4644672,12.720703 4.8613281,12.720703 H 4.4941406 L 4.9257812,11.46875 H 6.1777344 V 10.044922 L 7.7773437,9.6445313 C 7.8324382,9.5238158 7.8797112,9.4002109 7.9472656,9.2832031 8.0149213,9.16602 8.0967048,9.0632962 8.1738281,8.9550781 L 8.109375,8.7265625 H 5.8515625 L 7.4238281,4.2246094 8.3769531,6.9921875 10.007813,6.0507812 11.044922,7.1230469 8.7167969,0.47070313 Z" style="-inkscape-font-specification:&quot;Nimbus Mono PS Bold&quot;;white-space:pre"/></g></svg>